<?xml version="1.0"?>
<svg width="640" height="480" xmlns="http://www.w3.org/2000/svg" xmlns:svg="http://www.w3.org/2000/svg">
 <!-- Created with SVG-edit - https://github.com/SVG-Edit/svgedit-->
 <g class="layer">
  <title>Layer 1</title>
  <ellipse cx="354.753914" cy="338.253931" fill="#7fff00" id="svg_12" rx="98" ry="88" stroke="#000000" stroke-width="5"/>
  <ellipse cx="321.753914" cy="349.2539" fill="#7fff00" id="svg_11" rx="98" ry="88" stroke="#000000" stroke-width="5"/>
  <ellipse cx="279.753914" cy="350.2539" fill="#7fff00" id="svg_10" rx="98" ry="88" stroke="#000000" stroke-width="5"/>
  <ellipse cx="233.753914" cy="335.2539" fill="#7fff00" id="svg_9" rx="98" ry="88" stroke="#000000" stroke-width="5"/>
  <ellipse cx="203.753914" cy="295.2539" fill="#7fff00" id="svg_8" rx="98" ry="88" stroke="#000000" stroke-width="5"/>
  <ellipse cx="188.753899" cy="241.2539" fill="#7fff00" id="svg_7" rx="98" ry="88" stroke="#000000" stroke-width="5"/>
  <ellipse cx="187.753929" cy="192.2539" fill="#7fff00" id="svg_6" rx="98" ry="88" stroke="#000000" stroke-width="5"/>
  <ellipse cx="196.753899" cy="153.253916" fill="#7fff00" id="svg_5" rx="98" ry="88" stroke="#000000" stroke-width="5"/>
  <ellipse cx="227.753899" cy="133.2539" fill="#7fff00" id="svg_13" rx="98" ry="88" stroke="#000000" stroke-width="5"/>
  <ellipse cx="268.753914" cy="121.2539" fill="#7fff00" id="svg_16" rx="98" ry="88" stroke="#000000" stroke-width="5"/>
  <ellipse cx="311.753914" cy="125.2539" fill="#7fff00" id="svg_17" rx="98" ry="88" stroke="#000000" stroke-width="5"/>
  <ellipse cx="331.753914" cy="143.2539" fill="#7fff00" id="svg_18" rx="98" ry="88" stroke="#000000" stroke-width="5"/>
  <ellipse cx="330.753914" cy="176.2539" fill="#7fff00" id="svg_14" rx="98" ry="88" stroke="#000000" stroke-width="5"/>
  <g id="svg_15">
   <ellipse cx="329.757805" cy="211.265619" fill="#7fff00" id="svg_1" rx="98" ry="88" stroke="#000000" stroke-width="5"/>
   <text fill="#000000" font-family="serif" font-size="24" id="svg_3" stroke="#000000" stroke-dasharray="null" stroke-linecap="null" stroke-linejoin="null" stroke-width="0" text-anchor="middle" transform="matrix(2.9601 0 0 3.27999 -458.131 -436.179)" x="265.109109" xml:space="preserve" y="204.411978">JSEQ</text>
  </g>
  <rect fill="#7fff00" height="2" id="svg_23" stroke="#000000" stroke-dasharray="null" stroke-linecap="null" stroke-linejoin="null" stroke-width="5" width="0" x="507.757805" y="52.26562"/>
 </g>
</svg>